<?xml version="1.0" standalone="no"?>
<!DOCTYPE svg PUBLIC "-//W3C//DTD SVG 20010904//EN"
 "http://www.w3.org/TR/2001/REC-SVG-20010904/DTD/svg10.dtd">
<svg version="1.0" xmlns="http://www.w3.org/2000/svg"
 width="720.000000pt" height="720.000000pt" viewBox="0 0 720.000000 720.000000"
 preserveAspectRatio="xMidYMid meet">
<metadata>
Created by potrace 1.11, written by Peter Selinger 2001-2013
</metadata>
<g transform="translate(0.000000,720.000000) scale(0.100000,-0.100000)"
fill="#000000" stroke="none">
<path d="M2552 7179 c-171 -87 -131 -331 60 -364 17 -3 34 -8 38 -10 4 -3 65
-109 135 -237 71 -128 157 -286 193 -351 36 -66 61 -122 56 -126 -5 -5 -38
-23 -74 -42 -269 -138 -491 -361 -635 -635 -45 -87 -109 -257 -120 -323 -3
-19 -8 -38 -11 -42 -3 -5 -7 -25 -9 -46 -2 -21 -8 -67 -12 -103 -5 -36 -8 -85
-8 -110 l0 -45 470 -1 c259 -1 477 -2 486 -3 8 0 23 -19 33 -41 15 -35 36 -54
36 -32 0 4 9 22 21 41 l21 34 21 -41 c11 -23 24 -42 27 -42 3 0 16 19 27 41
l21 42 27 -44 c26 -40 28 -42 41 -24 8 10 14 24 14 31 0 6 6 17 14 23 11 10
16 8 20 -6 4 -10 15 -29 25 -42 l19 -25 22 44 22 44 22 -36 c11 -19 24 -37 29
-39 4 -2 18 14 31 35 l24 40 21 -42 c20 -39 41 -55 41 -32 0 5 9 24 19 41 l19
31 25 -43 25 -42 21 34 c12 19 21 38 21 42 0 18 21 -6 35 -40 12 -29 18 -33
29 -24 8 6 19 25 26 41 7 17 15 30 19 30 3 0 15 -18 25 -40 11 -22 22 -40 26
-40 4 0 13 13 20 30 23 57 1 54 564 55 l521 0 -1 50 c-4 259 -97 545 -249 770
-139 204 -348 388 -559 492 l-53 26 36 59 c20 33 45 74 56 92 11 19 80 130
153 248 l133 216 49 4 c226 22 228 355 3 384 -149 19 -261 -142 -194 -279 l21
-42 -67 -110 c-37 -60 -120 -195 -185 -300 -64 -104 -121 -197 -126 -204 -7
-13 -17 -13 -73 2 -35 10 -74 19 -87 22 -13 2 -31 6 -40 9 -71 21 -399 30
-487 14 -22 -5 -55 -10 -74 -14 -18 -3 -64 -14 -103 -24 l-69 -18 -13 22 c-15
24 -50 86 -95 169 -79 145 -95 175 -119 217 -13 25 -40 74 -60 110 -19 36 -52
96 -74 133 -21 38 -38 71 -38 74 0 3 10 19 23 36 18 26 22 45 22 103 0 61 -3
75 -27 107 -43 55 -80 76 -145 83 -47 4 -66 1 -101 -17z"/>
<path d="M5571 4932 c-16 -9 -40 -30 -53 -47 -23 -29 -23 -34 -25 -298 -1
-298 2 -318 59 -359 l33 -23 510 0 c494 0 511 1 537 20 59 45 61 54 62 344 1
301 -3 320 -72 358 -36 21 -48 21 -529 21 -440 0 -495 -1 -522 -16z"/>
<path d="M649 4900 c-58 -7 -94 -31 -117 -78 -16 -33 -18 -66 -17 -298 1 -296
5 -311 80 -349 39 -19 58 -20 530 -20 467 1 492 2 523 20 18 11 41 37 51 60
17 36 19 64 17 295 -2 140 -3 263 -4 272 -3 32 -62 87 -99 94 -42 8 -898 11
-964 4z"/>
<path d="M1910 4562 c-33 -5 -78 -49 -88 -86 -4 -17 -8 -380 -7 -806 0 -835
-1 -815 53 -855 25 -18 45 -20 221 -22 107 -2 195 -4 197 -5 1 -2 5 -21 8 -42
16 -99 80 -184 173 -232 l58 -29 274 -2 c151 -1 276 -5 280 -8 3 -3 6 -101 6
-218 1 -117 5 -228 9 -247 26 -107 137 -196 249 -199 22 -1 27 -6 27 -26 0
-61 57 -143 121 -176 l39 -19 0 -95 0 -94 -37 -6 c-135 -23 -239 -63 -346
-134 -79 -52 -188 -164 -235 -244 -41 -69 -91 -189 -98 -236 -3 -20 -7 -43
-10 -51 -3 -8 -8 -54 -10 -102 l-4 -88 236 1 c130 0 238 -1 240 -3 2 -2 4 -93
4 -203 2 -215 8 -243 62 -291 41 -37 83 -44 266 -44 204 0 243 11 290 83 l26
40 1 206 0 206 240 5 240 5 -1 55 c-3 287 -145 535 -392 686 -73 45 -197 92
-265 100 -88 10 -82 3 -81 105 l1 92 51 33 c55 36 96 95 107 155 6 34 9 37 50
41 56 7 131 45 162 83 13 16 30 37 37 45 32 40 42 123 41 333 0 135 3 207 10
207 5 1 132 2 280 3 257 2 272 4 315 25 25 12 62 36 82 52 43 36 97 139 100
192 l3 38 110 1 c61 0 146 0 190 0 63 -1 87 3 112 18 70 43 65 -16 66 870 l0
799 -22 31 c-12 17 -32 36 -44 43 -17 9 -405 12 -1697 13 -921 0 -1686 -2
-1700 -3z m1840 -3295 c273 -65 487 -298 525 -572 l5 -40 -182 0 -182 0 -2
215 c-1 220 -5 247 -43 287 -48 50 -74 56 -261 58 -195 1 -235 -5 -278 -44
-54 -49 -57 -60 -62 -296 l-5 -220 -178 0 -179 0 7 49 c14 122 82 258 178 362
57 62 183 154 210 154 7 0 17 4 23 9 11 11 116 42 164 48 19 3 36 6 38 8 8 8
167 -5 222 -18z"/>
<path d="M5661 4026 c-1 -76 2 -105 11 -108 24 -7 837 -2 845 6 4 4 8 52 8
107 l1 99 -432 0 -432 0 -1 -104z"/>
<path d="M686 4081 c-2 -6 0 -179 3 -201 1 -7 146 -9 429 -8 l427 3 3 106 3
105 -431 0 c-237 0 -432 -2 -434 -5z"/>
<path d="M5662 3753 l3 -108 430 0 430 0 0 108 0 107 -433 0 -432 0 2 -107z"/>
<path d="M691 3810 c-5 -4 -7 -170 -2 -202 0 -5 195 -8 431 -8 l430 0 0 105
c0 58 -3 106 -7 106 -25 4 -846 3 -852 -1z"/>
<path d="M5661 3478 l0 -108 432 0 432 0 0 105 c0 58 -2 106 -5 106 -3 1 -197
2 -432 3 l-428 1 1 -107z"/>
<path d="M687 3533 c-2 -5 -3 -53 -3 -108 l1 -100 433 0 432 -1 0 108 0 108
-429 0 c-237 0 -432 -3 -434 -7z"/>
<path d="M5561 3289 c-48 -22 -62 -49 -67 -132 -5 -85 7 -128 48 -162 l30 -26
529 3 529 3 23 25 c33 36 44 75 41 153 -3 74 -17 105 -61 134 -25 17 -67 18
-531 18 -449 0 -509 -1 -541 -16z"/>
<path d="M790 3260 c-136 -3 -202 -9 -218 -18 -36 -21 -58 -80 -56 -153 2 -75
12 -105 49 -139 l27 -25 505 -1 c279 0 516 1 528 4 31 5 69 41 83 77 16 43 9
167 -11 199 -36 54 -50 56 -394 59 -175 1 -406 0 -513 -3z"/>
<path d="M5688 2902 l-27 -3 0 -105 -1 -104 28 -1 c40 -1 750 -1 797 0 l40 1
1 105 c0 99 -2 105 -21 106 -63 3 -794 3 -817 1z"/>
<path d="M688 2846 c-2 -6 -4 -54 -3 -106 l0 -95 433 -1 432 -1 0 107 0 107
-430 0 c-303 0 -430 -3 -432 -11z"/>
<path d="M5717 2632 l-58 -3 3 -107 3 -106 418 -1 c231 0 424 3 430 7 8 5 12
43 12 108 l0 100 -130 0 c-71 1 -240 2 -375 3 -135 1 -271 1 -303 -1z"/>
<path d="M692 2580 c-4 -3 -7 -50 -7 -105 l0 -100 433 -3 432 -2 0 108 0 107
-425 1 c-234 0 -429 -3 -433 -6z"/>
<path d="M5664 2348 c-2 -3 -4 -52 -3 -107 l1 -101 431 2 432 3 0 103 c1 56
-2 103 -5 103 -23 5 -853 3 -856 -3z"/>
<path d="M689 2308 c-3 -7 -5 -194 -2 -203 2 -7 150 -10 426 -9 232 1 425 2
430 3 4 0 7 48 7 106 l0 105 -430 0 c-236 0 -431 -1 -431 -2z"/>
<path d="M5715 2046 c-7 -6 -88 -141 -180 -301 -185 -321 -192 -339 -152 -415
26 -52 73 -80 134 -80 79 0 99 22 244 273 l131 227 202 0 201 0 95 -166 c52
-92 96 -172 98 -179 2 -7 -54 -111 -125 -231 -122 -210 -127 -221 -128 -276 0
-63 20 -100 71 -130 83 -48 167 -19 223 77 13 22 90 156 172 298 l149 258
-132 227 c-72 125 -142 247 -156 271 -14 25 -40 70 -58 100 l-32 56 -372 1
c-245 0 -376 -4 -385 -10z"/>
<path d="M548 1683 l-188 -327 141 -244 c230 -401 227 -396 302 -409 92 -14
172 56 172 151 0 45 -8 65 -64 161 -36 61 -74 128 -87 150 -12 22 -40 71 -63
110 -22 38 -41 74 -41 80 0 6 44 87 98 180 l99 170 198 0 198 0 32 -50 c17
-27 76 -128 131 -224 115 -202 138 -225 220 -225 85 0 147 58 150 142 2 46
-11 78 -77 187 -11 17 -22 37 -26 45 -4 8 -33 59 -65 113 -32 55 -58 101 -58
103 0 3 -69 121 -90 154 -6 8 -14 25 -20 38 l-10 22 -382 0 -383 -1 -187 -326z"/>
</g>
</svg>
